<?xml version="1.0" encoding="UTF-8" standalone="no"?>
<svg
   version="1.1"
   viewBox="0 0 160.6666870117187 142.75951434521608"
   width="160.6666870117187"
   height="142.75951434521608"
   id="svg42"
   sodipodi:docname="city.svg"
   inkscape:version="1.4 (86a8ad7, 2024-10-11)"
   xmlns:inkscape="http://www.inkscape.org/namespaces/inkscape"
   xmlns:sodipodi="http://sodipodi.sourceforge.net/DTD/sodipodi-0.dtd"
   xmlns="http://www.w3.org/2000/svg"
   xmlns:svg="http://www.w3.org/2000/svg">
  <sodipodi:namedview
     id="namedview42"
     pagecolor="#505050"
     bordercolor="#eeeeee"
     borderopacity="1"
     inkscape:showpageshadow="0"
     inkscape:pageopacity="0"
     inkscape:pagecheckerboard="0"
     inkscape:deskcolor="#505050"
     inkscape:zoom="6.1992362"
     inkscape:cx="80.332476"
     inkscape:cy="71.218451"
     inkscape:window-width="1920"
     inkscape:window-height="1166"
     inkscape:window-x="-11"
     inkscape:window-y="-11"
     inkscape:window-maximized="1"
     inkscape:current-layer="svg42" />
  <!-- svg-source:excalidraw -->
  <defs
     id="defs1">
    <style
       class="style-fonts"
       id="style1" />
  </defs>
  <g
     stroke-linecap="round"
     transform="translate(46.826886,18.06551)"
     id="g2">
    <path
       d="M -1.7,-0.59 70.54,1.15 68.48,124.43 -0.4,124.25"
       stroke="none"
       stroke-width="0"
       fill="#1e1e1e"
       id="path1" />
    <path
       d="M 0,0 C 14.77,1.07 27.18,-0.48 69.27,0 M 0,0 c 15.88,-1.38 33.38,-0.57 69.27,0 m 0,0 c -1.31,25.68 0.45,55.72 0,122.76 M 69.27,0 c 0.7,25.72 -0.42,52.71 0,122.76 m 0,0 c -24.97,-0.11 -51.29,-0.7 -69.27,0 m 69.27,0 c -23.44,0.27 -48.68,-1.04 -69.27,0 m 0,0 C 0.34,80 0.75,41.62 0,0 M 0,122.76 C 0.56,76.16 -0.61,28.14 0,0"
       stroke="#1e1e1e"
       stroke-width="2"
       fill="none"
       id="path2" />
  </g>
  <g
     stroke-linecap="round"
     transform="translate(58.063182,35.602554)"
     id="g4">
    <path
       d="m 0.05,-0.69 18.46,0.36 -0.2,25.72 -17.48,0.13"
       stroke="none"
       stroke-width="0"
       fill="#ffec99"
       id="path3" />
    <path
       d="M 0,0 C 6.9,0.71 13.74,0.86 19.14,0 M 0,0 c 7.15,-0.39 15.03,0.32 19.14,0 m 0,0 c -0.25,9.71 -0.17,18.03 0,25.08 M 19.14,0 c 0.44,7.19 -0.28,14.73 0,25.08 m 0,0 C 12.03,25.83 5.79,25.72 0,25.08 m 19.14,0 C 14.47,24.82 9.86,24.81 0,25.08 m 0,0 C -0.1,19.07 0.73,11.38 0,0 M 0,25.08 C 0.33,17.63 0.34,9.33 0,0"
       stroke="#1e1e1e"
       stroke-width="2"
       fill="none"
       id="path4" />
  </g>
  <g
     stroke-linecap="round"
     transform="translate(84.791719,36.262523)"
     id="g6">
    <path
       d="m -0.89,0.35 20.55,-0.7 -0.7,24.72 -19.9,1.64"
       stroke="none"
       stroke-width="0"
       fill="#ffec99"
       id="path5" />
    <path
       d="M 0,0 C 4.81,-0.93 9.96,0.3 19.14,0 M 0,0 c 5.28,0.34 11.56,0.43 19.14,0 m 0,0 c 0.55,8.91 0.36,19.36 0,25.08 M 19.14,0 c -0.03,5.91 0.32,12.41 0,25.08 m 0,0 C 15.21,25.2 10.4,25.92 0,25.08 m 19.14,0 C 12.93,24.83 7.07,25.31 0,25.08 m 0,0 C -0.43,19.87 -0.76,13.68 0,0 M 0,25.08 C -0.17,15.86 0.47,7.66 0,0"
       stroke="#1e1e1e"
       stroke-width="2"
       fill="none"
       id="path6" />
  </g>
  <g
     stroke-linecap="round"
     transform="translate(57.568209,70.250681)"
     id="g8">
    <path
       d="M -0.85,-0.69 19.34,-0.93 18.77,25.48 0.89,24.74"
       stroke="none"
       stroke-width="0"
       fill="#ffec99"
       id="path7" />
    <path
       d="M 0,0 C 5.08,0.45 8.47,0.7 19.14,0 M 0,0 c 6.14,0.02 12.81,-0.34 19.14,0 m 0,0 c 0.18,8.18 0.08,15.27 0,25.08 M 19.14,0 c -0.21,5.08 -0.04,11.14 0,25.08 m 0,0 C 11.23,24.99 4.88,24.24 0,25.08 m 19.14,0 C 14.47,25.03 10.12,24.86 0,25.08 m 0,0 C -0.62,17.4 0.64,12.45 0,0 M 0,25.08 C 0.21,16.28 0.33,8.44 0,0"
       stroke="#1e1e1e"
       stroke-width="2"
       fill="none"
       id="path8" />
  </g>
  <g
     stroke-linecap="round"
     transform="translate(84.296746,70.91065)"
     id="g10">
    <path
       d="M 0.2,-0.93 18.77,0.4 20.03,24.74 -0.3,24.46"
       stroke="none"
       stroke-width="0"
       fill="#ffec99"
       id="path9" />
    <path
       d="M 0,0 C 5.46,0.64 10.95,0.62 19.14,0 M 0,0 c 6.86,-0.3 13.39,-0.15 19.14,0 m 0,0 c 0.14,9.06 -0.8,16.18 0,25.08 M 19.14,0 c 0.01,8.16 0.4,15.93 0,25.08 m 0,0 C 15.22,24.3 9.59,24.85 0,25.08 m 19.14,0 C 13.89,24.89 8.83,24.7 0,25.08 m 0,0 C 0.63,19.11 0.46,12 0,0 M 0,25.08 C 0.32,19.63 -0.49,13.35 0,0"
       stroke="#1e1e1e"
       stroke-width="2"
       fill="none"
       id="path10" />
  </g>
  <g
     stroke-linecap="round"
     transform="translate(58.228193,103.24882)"
     id="g12">
    <path
       d="M -0.89,0.24 18.96,0.82 19.77,24.9 0.52,24.78"
       stroke="none"
       stroke-width="0"
       fill="#ffec99"
       id="path11" />
    <path
       d="M 0,0 C 5.94,-0.63 11.75,-0.16 19.14,0 M 0,0 c 5.22,0.22 10.73,-0.22 19.14,0 m 0,0 c -0.83,7.34 -0.21,13.52 0,25.08 M 19.14,0 c -0.05,5.9 -0.13,11.54 0,25.08 m 0,0 c -4.2,-0.41 -8.26,0.85 -19.14,0 m 19.14,0 C 11.98,25.46 6.15,24.67 0,25.08 m 0,0 C 0.05,15.84 0.79,9.18 0,0 M 0,25.08 C 0.01,15.47 0.05,7.1 0,0"
       stroke="#1e1e1e"
       stroke-width="2"
       fill="none"
       id="path12" />
  </g>
  <g
     stroke-linecap="round"
     transform="translate(84.95673,103.90879)"
     id="g14">
    <path
       d="M -0.18,0.82 19.77,-0.17 19.66,24.78 -0.48,25.39"
       stroke="none"
       stroke-width="0"
       fill="#ffec99"
       id="path13" />
    <path
       d="M 0,0 C 5.87,-0.09 11.77,1.01 19.14,0 M 0,0 c 7.97,-0.19 15.07,-0.17 19.14,0 m 0,0 c -0.28,10.34 -0.86,19.69 0,25.08 M 19.14,0 c -0.19,6.09 -0.5,11.89 0,25.08 m 0,0 C 11.57,25.81 5.42,24.3 0,25.08 m 19.14,0 C 13.05,24.7 6.21,25.01 0,25.08 m 0,0 C 0.75,18.13 0.65,9.26 0,0 M 0,25.08 C 0.01,15.88 -0.44,6.16 0,0"
       stroke="#1e1e1e"
       stroke-width="2"
       fill="none"
       id="path14" />
  </g>
  <g
     stroke-linecap="round"
     transform="translate(112.29588,70.445206)"
     id="g16">
    <path
       d="M 1.11,1.73 40.05,1.56 39.08,70.13 0.98,70.75"
       stroke="none"
       stroke-width="0"
       fill="#1e1e1e"
       id="path15" />
    <path
       d="M 0,0 C 7.86,1.04 15.72,0.82 39.5,0 M 0,0 c 14.14,-0.07 27.49,-0.2 39.5,0 m 0,0 c 0.3,23.11 0.94,46.28 0,70 m 0,-70 c -0.2,23.86 -0.09,49.19 0,70 m 0,0 C 22.37,69.07 7.62,71.75 0,70 m 39.5,0 C 28.62,70.52 17.91,69.92 0,70 m 0,0 C 0.2,45.62 -0.16,15.98 0,0 M 0,70 C 0.99,41.76 0.94,15.87 0,0"
       stroke="#1e1e1e"
       stroke-width="2"
       fill="none"
       id="path16" />
  </g>
  <g
     stroke-linecap="round"
     transform="translate(118.70305,80.445194)"
     id="g18">
    <path
       d="M 0.28,0.78 10.7,0.06 11.4,14.68 -0.44,14.34"
       stroke="none"
       stroke-width="0"
       fill="#ffec99"
       id="path17" />
    <path
       d="M 0,0 C 3.01,0.18 6.51,-0.51 10.91,0 M 0,0 c 4.19,0 7.99,0.25 10.91,0 m 0,0 c 0.09,4.83 0.34,9.98 0,14.3 m 0,-14.3 c 0.07,5.74 0.33,11.51 0,14.3 m 0,0 C 7.99,14.83 5.6,14.64 0,14.3 m 10.91,0 C 8.88,14.42 6.52,14.43 0,14.3 m 0,0 C 0,8.96 0.65,4.5 0,0 M 0,14.3 C 0.13,10.71 0.16,6.78 0,0"
       stroke="#1e1e1e"
       stroke-width="2"
       fill="none"
       id="path18" />
  </g>
  <g
     stroke-linecap="round"
     transform="translate(133.94421,80.821522)"
     id="g20">
    <path
       d="M -0.21,0.06 11.4,0.38 10.47,14.34 0.55,14.81"
       stroke="none"
       stroke-width="0"
       fill="#ffec99"
       id="path19" />
    <path
       d="M 0,0 C 4.02,-0.5 7.97,0.44 10.91,0 M 0,0 c 3.57,0.26 7.1,-0.05 10.91,0 m 0,0 c 0.36,3.71 0.68,7.99 0,14.3 m 0,-14.3 c 0.33,3.75 -0.2,6.63 0,14.3 m 0,0 C 7.94,14.72 4.63,14.57 0,14.3 m 10.91,0 C 6.89,14.39 2.54,14.37 0,14.3 m 0,0 C 0.66,8.32 -0.19,3.68 0,0 M 0,14.3 C 0.17,11.34 0.07,8.04 0,0"
       stroke="#1e1e1e"
       stroke-width="2"
       fill="none"
       id="path20" />
  </g>
  <g
     stroke-linecap="round"
     transform="translate(118.4208,100.20228)"
     id="g22">
    <path
       d="m 0.49,0.38 9.98,-0.34 0.99,14.77 -11.54,0.25"
       stroke="none"
       stroke-width="0"
       fill="#ffec99"
       id="path21" />
    <path
       d="M 0,0 C 4.03,0.51 7.49,0.54 10.91,0 M 0,0 c 3.48,-0.1 6.59,-0.02 10.91,0 m 0,0 c 0.7,3.74 -0.37,7.52 0,14.3 m 0,-14.3 c -0.15,4.45 -0.06,9.32 0,14.3 m 0,0 C 6.06,14.55 2.67,14.86 0,14.3 m 10.91,0 C 7.41,14.37 4,14.32 0,14.3 m 0,0 C -0.25,11.73 -0.58,8.76 0,0 M 0,14.3 C 0.06,8.99 -0.11,3.15 0,0"
       stroke="#1e1e1e"
       stroke-width="2"
       fill="none"
       id="path22" />
  </g>
  <g
     stroke-linecap="round"
     transform="translate(133.66197,100.5786)"
     id="g24">
    <path
       d="m -0.44,0.04 11.9,0.47 -0.62,14.55 -11.21,-1"
       stroke="none"
       stroke-width="0"
       fill="#ffec99"
       id="path23" />
    <path
       d="M 0,0 C 2.4,0.45 4.64,0.15 10.91,0 M 0,0 c 4.26,0.05 8.52,0.14 10.91,0 m 0,0 c -0.34,3.88 0.31,8.15 0,14.3 m 0,-14.3 c -0.16,5.19 0.32,10.73 0,14.3 m 0,0 C 7.39,14.84 3.06,14.72 0,14.3 m 10.91,0 C 7.55,14.32 3.47,14.57 0,14.3 m 0,0 C -0.49,11.31 0.67,8.05 0,0 M 0,14.3 C -0.09,8.79 0.15,3.38 0,0"
       stroke="#1e1e1e"
       stroke-width="2"
       fill="none"
       id="path24" />
  </g>
  <g
     stroke-linecap="round"
     transform="translate(118.79714,119.0185)"
     id="g26">
    <path
       d="m 0.55,0.51 10.29,0.24 -0.3,13.31 -10.88,1.17"
       stroke="none"
       stroke-width="0"
       fill="#ffec99"
       id="path25" />
    <path
       d="M 0,0 C 4.22,0.15 8.91,0.27 10.91,0 M 0,0 c 2.96,0.13 6.04,0.25 10.91,0 m 0,0 c 0.2,5.02 0.51,8.33 0,14.3 m 0,-14.3 c 0.33,2.98 0.22,5.74 0,14.3 m 0,0 C 7.36,14.75 3.67,14.49 0,14.3 m 10.91,0 C 7.16,14.56 3.74,14.23 0,14.3 m 0,0 C 0.7,9.67 0.67,4.44 0,0 M 0,14.3 C 0.19,9.03 -0.14,3.51 0,0"
       stroke="#1e1e1e"
       stroke-width="2"
       fill="none"
       id="path26" />
  </g>
  <g
     stroke-linecap="round"
     transform="translate(134.03831,119.39483)"
     id="g28">
    <path
       d="M -0.08,0.75 10.54,-0.24 10.57,15.23 0.62,14.81"
       stroke="none"
       stroke-width="0"
       fill="#ffec99"
       id="path27" />
    <path
       d="M 0,0 C 4.78,0.3 8.42,-0.14 10.91,0 M 0,0 c 3.32,0.23 6.86,-0.18 10.91,0 m 0,0 c 0.58,4.1 -0.6,8.83 0,14.3 m 0,-14.3 c 0.31,3.15 0.22,7.25 0,14.3 m 0,0 C 6.76,14.48 2.4,14.8 0,14.3 m 10.91,0 C 7.43,14.28 4.46,14.16 0,14.3 m 0,0 C 0.55,9.54 0.49,4.23 0,0 M 0,14.3 C -0.19,9.93 0.16,5.72 0,0"
       stroke="#1e1e1e"
       stroke-width="2"
       fill="none"
       id="path28" />
  </g>
  <g
     stroke-linecap="round"
     transform="translate(11.129171,47.111893)"
     id="g30">
    <path
       d="M 0.3,-0.32 52.5,-1.51 52.14,92.57 -0.77,94.52"
       stroke="none"
       stroke-width="0"
       fill="#1e1e1e"
       id="path29" />
    <path
       d="M 0,0 C 11.36,0.38 22.17,-0.77 52.67,0 M 0,0 c 20.22,-0.87 42.26,0.55 52.67,0 m 0,0 c -1.6,22.88 -0.44,47.84 0,93.33 M 52.67,0 c -0.97,20.18 -0.27,39.03 0,93.33 m 0,0 C 34.54,92.54 18.52,93.6 0,93.33 m 52.67,0 C 35.85,93.22 19.09,93.32 0,93.33 m 0,0 C -0.52,74.04 1.01,52.44 0,0 M 0,93.33 C -0.91,61 -0.83,30.17 0,0"
       stroke="#1e1e1e"
       stroke-width="2"
       fill="none"
       id="path30" />
  </g>
  <g
     stroke-linecap="round"
     transform="translate(19.672061,60.445206)"
     id="g32">
    <path
       d="m -0.08,-0.76 14.37,0.38 -0.12,20.04 -14.5,-1.42"
       stroke="none"
       stroke-width="0"
       fill="#ffec99"
       id="path31" />
    <path
       d="M 0,0 C 4.14,-0.33 8.73,-0.18 14.55,0 M 0,0 c 5.78,0.39 10.96,-0.23 14.55,0 m 0,0 c 0.07,3.54 -0.86,8.03 0,19.07 M 14.55,0 c -0.11,6.96 -0.01,15.24 0,19.07 m 0,0 C 8.8,18.99 4.04,19.07 0,19.07 m 14.55,0 C 11.37,19.2 7.33,19 0,19.07 m 0,0 C 0.41,13.21 0.44,8.8 0,0 M 0,19.07 C 0,13 0.08,6.18 0,0"
       stroke="#1e1e1e"
       stroke-width="2"
       fill="none"
       id="path32" />
  </g>
  <g
     stroke-linecap="round"
     transform="translate(39.993612,60.946976)"
     id="g34">
    <path
       d="M -0.26,-0.38 14.17,0.59 14.22,18.24 0.68,19.2"
       stroke="none"
       stroke-width="0"
       fill="#ffec99"
       id="path33" />
    <path
       d="M 0,0 C 5.25,-0.14 9.7,-0.39 14.55,0 M 0,0 c 3.59,-0.33 7.14,-0.24 14.55,0 m 0,0 c -0.81,3.97 0.85,7.58 0,19.07 M 14.55,0 c 0.06,6.61 0.32,11.89 0,19.07 m 0,0 c -3.34,0.04 -7.52,0.25 -14.55,0 m 14.55,0 C 9.56,19.01 5.16,18.96 0,19.07 m 0,0 C 0.36,13.38 0.3,5.96 0,0 M 0,19.07 C 0.07,14.04 -0.04,8.8 0,0"
       stroke="#1e1e1e"
       stroke-width="2"
       fill="none"
       id="path34" />
  </g>
  <g
     stroke-linecap="round"
     transform="translate(19.295736,86.787974)"
     id="g36">
    <path
       d="M -0.39,0.59 14.22,-0.83 15.23,19.2 0.67,19.59"
       stroke="none"
       stroke-width="0"
       fill="#ffec99"
       id="path35" />
    <path
       d="M 0,0 C 4.31,-0.41 7.11,0.48 14.55,0 M 0,0 c 5.48,-0.12 11.28,0.1 14.55,0 m 0,0 c 0.75,3.84 0.13,9.09 0,19.07 M 14.55,0 c 0.34,3.65 -0.26,7.8 0,19.07 m 0,0 C 9.79,19.32 6.11,19.62 0,19.07 m 14.55,0 C 9.69,18.92 5.04,19.19 0,19.07 m 0,0 C 0.3,13.87 -0.42,8.86 0,0 M 0,19.07 C -0.05,11.65 -0.14,4.77 0,0"
       stroke="#1e1e1e"
       stroke-width="2"
       fill="none"
       id="path36" />
  </g>
  <g
     stroke-linecap="round"
     transform="translate(39.617287,87.289745)"
     id="g38">
    <path
       d="M -0.33,-0.83 15.23,0.14 15.22,19.59 -0.55,19.11"
       stroke="none"
       stroke-width="0"
       fill="#ffec99"
       id="path37" />
    <path
       d="M 0,0 C 3.7,0.51 8.75,-0.23 14.55,0 M 0,0 c 3.02,0.08 6.42,-0.28 14.55,0 m 0,0 c 0.29,5.26 -0.76,10.81 0,19.07 M 14.55,0 c -0.21,7.35 0.04,15.34 0,19.07 m 0,0 c -4.3,0.57 -8.68,-0.59 -14.55,0 m 14.55,0 c -3.88,0.11 -8.18,0.12 -14.55,0 m 0,0 C -0.42,11.68 0.63,4.49 0,0 M 0,19.07 C -0.12,13.47 -0.18,8.52 0,0"
       stroke="#1e1e1e"
       stroke-width="2"
       fill="none"
       id="path38" />
  </g>
  <g
     stroke-linecap="round"
     transform="translate(19.797518,111.87627)"
     id="g40">
    <path
       d="M 0.68,0.14 15.22,0.53 14,19.11 -0.81,18.56"
       stroke="none"
       stroke-width="0"
       fill="#ffec99"
       id="path39" />
    <path
       d="M 0,0 C 4.23,-0.32 6.5,-0.66 14.55,0 M 0,0 c 3.47,-0.32 7.31,0.31 14.55,0 m 0,0 c -0.82,4.36 0.97,9.1 0,19.07 M 14.55,0 c -0.07,4.31 -0.02,8.08 0,19.07 m 0,0 C 9.92,18.51 4.64,19.06 0,19.07 m 14.55,0 C 10.6,19.25 7.21,19.23 0,19.07 m 0,0 C 0.71,13.7 -0.11,7.96 0,0 M 0,19.07 C -0.16,15.07 -0.13,10.12 0,0"
       stroke="#1e1e1e"
       stroke-width="2"
       fill="none"
       id="path40" />
  </g>
  <g
     stroke-linecap="round"
     transform="translate(40.119069,112.37804)"
     id="g42">
    <path
       d="M 0.67,0.53 14,0.04 13.74,18.56 0.99,18.32"
       stroke="none"
       stroke-width="0"
       fill="#ffec99"
       id="path41" />
    <path
       d="M 0,0 C 4.78,-0.59 10.26,-0.57 14.55,0 M 0,0 c 4.47,0.38 8.79,0.14 14.55,0 m 0,0 c 0.86,6.2 -0.85,10.57 0,19.07 M 14.55,0 c 0.03,4.37 0.16,9.45 0,19.07 m 0,0 C 8.92,18.94 3.36,19.31 0,19.07 m 14.55,0 C 9.92,19.23 4.63,18.95 0,19.07 m 0,0 C -0.22,13.33 -0.79,7.5 0,0 M 0,19.07 C -0.12,13.68 0.36,9.15 0,0"
       stroke="#1e1e1e"
       stroke-width="2"
       fill="none"
       id="path42" />
  </g>
</svg>
