<svg version="1.1" xmlns="http://www.w3.org/2000/svg" viewBox="0 0 160.6666870117187 142.75951434521608" width="160.6666870117187" height="142.75951434521608">
  <!-- svg-source:excalidraw -->
  
  <defs>
    <style class="style-fonts">
      
    </style>
    
  </defs>
  <rect x="0" y="0" width="160.6666870117187" height="142.75951434521608" fill="#ffffff"></rect><g stroke-linecap="round" transform="translate(45.697714956627806 10) rotate(0 34.635689584387734 61.37975717260804)"><path d="M-1.7 -0.59 L70.54 1.15 L68.48 124.43 L-0.4 124.25" stroke="none" stroke-width="0" fill="#1e1e1e"></path><path d="M0 0 C14.77 1.07, 27.18 -0.48, 69.27 0 M0 0 C15.88 -1.38, 33.38 -0.57, 69.27 0 M69.27 0 C67.96 25.68, 69.72 55.72, 69.27 122.76 M69.27 0 C69.97 25.72, 68.85 52.71, 69.27 122.76 M69.27 122.76 C44.3 122.65, 17.98 122.06, 0 122.76 M69.27 122.76 C45.83 123.03, 20.59 121.72, 0 122.76 M0 122.76 C0.34 80, 0.75 41.62, 0 0 M0 122.76 C0.56 76.16, -0.61 28.14, 0 0" stroke="#1e1e1e" stroke-width="2" fill="none"></path></g><g stroke-linecap="round" transform="translate(56.93401040151218 27.537044807051302) rotate(0 9.569496354902583 12.539318695377517)"><path d="M0.05 -0.69 L18.51 -0.33 L18.31 25.39 L0.83 25.52" stroke="none" stroke-width="0" fill="#ffec99"></path><path d="M0 0 C6.9 0.71, 13.74 0.86, 19.14 0 M0 0 C7.15 -0.39, 15.03 0.32, 19.14 0 M19.14 0 C18.89 9.71, 18.97 18.03, 19.14 25.08 M19.14 0 C19.58 7.19, 18.86 14.73, 19.14 25.08 M19.14 25.08 C12.03 25.83, 5.79 25.72, 0 25.08 M19.14 25.08 C14.47 24.82, 9.86 24.81, 0 25.08 M0 25.08 C-0.1 19.07, 0.73 11.38, 0 0 M0 25.08 C0.33 17.63, 0.34 9.33, 0 0" stroke="#1e1e1e" stroke-width="2" fill="none"></path></g><g stroke-linecap="round" transform="translate(83.66254741415605 28.197013719031588) rotate(0 9.569496354902583 12.539318695377517)"><path d="M-0.89 0.35 L19.66 -0.35 L18.96 24.37 L-0.94 26.01" stroke="none" stroke-width="0" fill="#ffec99"></path><path d="M0 0 C4.81 -0.93, 9.96 0.3, 19.14 0 M0 0 C5.28 0.34, 11.56 0.43, 19.14 0 M19.14 0 C19.69 8.91, 19.5 19.36, 19.14 25.08 M19.14 0 C19.11 5.91, 19.46 12.41, 19.14 25.08 M19.14 25.08 C15.21 25.2, 10.4 25.92, 0 25.08 M19.14 25.08 C12.93 24.83, 7.07 25.31, 0 25.08 M0 25.08 C-0.43 19.87, -0.76 13.68, 0 0 M0 25.08 C-0.17 15.86, 0.47 7.66, 0 0" stroke="#1e1e1e" stroke-width="2" fill="none"></path></g><g stroke-linecap="round" transform="translate(56.4390374938705 62.18517100002168) rotate(0 9.569496354902583 12.539318695377517)"><path d="M-0.85 -0.69 L19.34 -0.93 L18.77 25.48 L0.89 24.74" stroke="none" stroke-width="0" fill="#ffec99"></path><path d="M0 0 C5.08 0.45, 8.47 0.7, 19.14 0 M0 0 C6.14 0.02, 12.81 -0.34, 19.14 0 M19.14 0 C19.32 8.18, 19.22 15.27, 19.14 25.08 M19.14 0 C18.93 5.08, 19.1 11.14, 19.14 25.08 M19.14 25.08 C11.23 24.99, 4.88 24.24, 0 25.08 M19.14 25.08 C14.47 25.03, 10.12 24.86, 0 25.08 M0 25.08 C-0.62 17.4, 0.64 12.45, 0 0 M0 25.08 C0.21 16.28, 0.33 8.44, 0 0" stroke="#1e1e1e" stroke-width="2" fill="none"></path></g><g stroke-linecap="round" transform="translate(83.1675745065146 62.84513991200197) rotate(0 9.569496354902583 12.539318695377517)"><path d="M0.2 -0.93 L18.77 0.4 L20.03 24.74 L-0.3 24.46" stroke="none" stroke-width="0" fill="#ffec99"></path><path d="M0 0 C5.46 0.64, 10.95 0.62, 19.14 0 M0 0 C6.86 -0.3, 13.39 -0.15, 19.14 0 M19.14 0 C19.28 9.06, 18.34 16.18, 19.14 25.08 M19.14 0 C19.15 8.16, 19.54 15.93, 19.14 25.08 M19.14 25.08 C15.22 24.3, 9.59 24.85, 0 25.08 M19.14 25.08 C13.89 24.89, 8.83 24.7, 0 25.08 M0 25.08 C0.63 19.11, 0.46 12, 0 0 M0 25.08 C0.32 19.63, -0.49 13.35, 0 0" stroke="#1e1e1e" stroke-width="2" fill="none"></path></g><g stroke-linecap="round" transform="translate(57.099021511225146 95.18331449154414) rotate(0 9.569496354902583 12.539318695377517)"><path d="M-0.89 0.24 L18.96 0.82 L19.77 24.9 L0.52 24.78" stroke="none" stroke-width="0" fill="#ffec99"></path><path d="M0 0 C5.94 -0.63, 11.75 -0.16, 19.14 0 M0 0 C5.22 0.22, 10.73 -0.22, 19.14 0 M19.14 0 C18.31 7.34, 18.93 13.52, 19.14 25.08 M19.14 0 C19.09 5.9, 19.01 11.54, 19.14 25.08 M19.14 25.08 C14.94 24.67, 10.88 25.93, 0 25.08 M19.14 25.08 C11.98 25.46, 6.15 24.67, 0 25.08 M0 25.08 C0.05 15.84, 0.79 9.18, 0 0 M0 25.08 C0.01 15.47, 0.05 7.1, 0 0" stroke="#1e1e1e" stroke-width="2" fill="none"></path></g><g stroke-linecap="round" transform="translate(83.82755852386913 95.84328340352431) rotate(0 9.569496354902583 12.539318695377517)"><path d="M-0.18 0.82 L19.77 -0.17 L19.66 24.78 L-0.48 25.39" stroke="none" stroke-width="0" fill="#ffec99"></path><path d="M0 0 C5.87 -0.09, 11.77 1.01, 19.14 0 M0 0 C7.97 -0.19, 15.07 -0.17, 19.14 0 M19.14 0 C18.86 10.34, 18.28 19.69, 19.14 25.08 M19.14 0 C18.95 6.09, 18.64 11.89, 19.14 25.08 M19.14 25.08 C11.57 25.81, 5.42 24.3, 0 25.08 M19.14 25.08 C13.05 24.7, 6.21 25.01, 0 25.08 M0 25.08 C0.75 18.13, 0.65 9.26, 0 0 M0 25.08 C0.01 15.88, -0.44 6.16, 0 0" stroke="#1e1e1e" stroke-width="2" fill="none"></path></g><g stroke-linecap="round" transform="translate(111.16670461383319 62.37969613745179) rotate(0 19.74999119894275 35.00001525878906)"><path d="M1.11 1.73 L40.05 1.56 L39.08 70.13 L0.98 70.75" stroke="none" stroke-width="0" fill="#1e1e1e"></path><path d="M0 0 C7.86 1.04, 15.72 0.82, 39.5 0 M0 0 C14.14 -0.07, 27.49 -0.2, 39.5 0 M39.5 0 C39.8 23.11, 40.44 46.28, 39.5 70 M39.5 0 C39.3 23.86, 39.41 49.19, 39.5 70 M39.5 70 C22.37 69.07, 7.62 71.75, 0 70 M39.5 70 C28.62 70.52, 17.91 69.92, 0 70 M0 70 C0.2 45.62, -0.16 15.98, 0 0 M0 70 C0.99 41.76, 0.94 15.87, 0 0" stroke="#1e1e1e" stroke-width="2" fill="none"></path></g><g stroke-linecap="round" transform="translate(117.57387417817802 72.37968414839793) rotate(0 5.456726026117082 7.15018054631355)"><path d="M0.28 0.78 L10.7 0.06 L11.4 14.68 L-0.44 14.34" stroke="none" stroke-width="0" fill="#ffec99"></path><path d="M0 0 C3.01 0.18, 6.51 -0.51, 10.91 0 M0 0 C4.19 0, 7.99 0.25, 10.91 0 M10.91 0 C11 4.83, 11.25 9.98, 10.91 14.3 M10.91 0 C10.98 5.74, 11.24 11.51, 10.91 14.3 M10.91 14.3 C7.99 14.83, 5.6 14.64, 0 14.3 M10.91 14.3 C8.88 14.42, 6.52 14.43, 0 14.3 M0 14.3 C0 8.96, 0.65 4.5, 0 0 M0 14.3 C0.13 10.71, 0.16 6.78, 0 0" stroke="#1e1e1e" stroke-width="2" fill="none"></path></g><g stroke-linecap="round" transform="translate(132.81504238053662 72.75601216032987) rotate(0 5.456726026117082 7.15018054631355)"><path d="M-0.21 0.06 L11.4 0.38 L10.47 14.34 L0.55 14.81" stroke="none" stroke-width="0" fill="#ffec99"></path><path d="M0 0 C4.02 -0.5, 7.97 0.44, 10.91 0 M0 0 C3.57 0.26, 7.1 -0.05, 10.91 0 M10.91 0 C11.27 3.71, 11.59 7.99, 10.91 14.3 M10.91 0 C11.24 3.75, 10.71 6.63, 10.91 14.3 M10.91 14.3 C7.94 14.72, 4.63 14.57, 0 14.3 M10.91 14.3 C6.89 14.39, 2.54 14.37, 0 14.3 M0 14.3 C0.66 8.32, -0.19 3.68, 0 0 M0 14.3 C0.17 11.34, 0.07 8.04, 0 0" stroke="#1e1e1e" stroke-width="2" fill="none"></path></g><g stroke-linecap="round" transform="translate(117.29163032257884 92.13676696044274) rotate(0 5.456726026117082 7.15018054631355)"><path d="M0.49 0.38 L10.47 0.04 L11.46 14.81 L-0.08 15.06" stroke="none" stroke-width="0" fill="#ffec99"></path><path d="M0 0 C4.03 0.51, 7.49 0.54, 10.91 0 M0 0 C3.48 -0.1, 6.59 -0.02, 10.91 0 M10.91 0 C11.61 3.74, 10.54 7.52, 10.91 14.3 M10.91 0 C10.76 4.45, 10.85 9.32, 10.91 14.3 M10.91 14.3 C6.06 14.55, 2.67 14.86, 0 14.3 M10.91 14.3 C7.41 14.37, 4 14.32, 0 14.3 M0 14.3 C-0.25 11.73, -0.58 8.76, 0 0 M0 14.3 C0.06 8.99, -0.11 3.15, 0 0" stroke="#1e1e1e" stroke-width="2" fill="none"></path></g><g stroke-linecap="round" transform="translate(132.53279852493756 92.51309497237469) rotate(0 5.456726026117082 7.15018054631355)"><path d="M-0.44 0.04 L11.46 0.51 L10.84 15.06 L-0.37 14.06" stroke="none" stroke-width="0" fill="#ffec99"></path><path d="M0 0 C2.4 0.45, 4.64 0.15, 10.91 0 M0 0 C4.26 0.05, 8.52 0.14, 10.91 0 M10.91 0 C10.57 3.88, 11.22 8.15, 10.91 14.3 M10.91 0 C10.75 5.19, 11.23 10.73, 10.91 14.3 M10.91 14.3 C7.39 14.84, 3.06 14.72, 0 14.3 M10.91 14.3 C7.55 14.32, 3.47 14.57, 0 14.3 M0 14.3 C-0.49 11.31, 0.67 8.05, 0 0 M0 14.3 C-0.09 8.79, 0.15 3.38, 0 0" stroke="#1e1e1e" stroke-width="2" fill="none"></path></g><g stroke-linecap="round" transform="translate(117.66796694790969 110.95299528906173) rotate(0 5.456726026117082 7.15018054631355)"><path d="M0.55 0.51 L10.84 0.75 L10.54 14.06 L-0.34 15.23" stroke="none" stroke-width="0" fill="#ffec99"></path><path d="M0 0 C4.22 0.15, 8.91 0.27, 10.91 0 M0 0 C2.96 0.13, 6.04 0.25, 10.91 0 M10.91 0 C11.11 5.02, 11.42 8.33, 10.91 14.3 M10.91 0 C11.24 2.98, 11.13 5.74, 10.91 14.3 M10.91 14.3 C7.36 14.75, 3.67 14.49, 0 14.3 M10.91 14.3 C7.16 14.56, 3.74 14.23, 0 14.3 M0 14.3 C0.7 9.67, 0.67 4.44, 0 0 M0 14.3 C0.19 9.03, -0.14 3.51, 0 0" stroke="#1e1e1e" stroke-width="2" fill="none"></path></g><g stroke-linecap="round" transform="translate(132.90913515026818 111.32932330099379) rotate(0 5.456726026117082 7.15018054631355)"><path d="M-0.08 0.75 L10.54 -0.24 L10.57 15.23 L0.62 14.81" stroke="none" stroke-width="0" fill="#ffec99"></path><path d="M0 0 C4.78 0.3, 8.42 -0.14, 10.91 0 M0 0 C3.32 0.23, 6.86 -0.18, 10.91 0 M10.91 0 C11.49 4.1, 10.31 8.83, 10.91 14.3 M10.91 0 C11.22 3.15, 11.13 7.25, 10.91 14.3 M10.91 14.3 C6.76 14.48, 2.4 14.8, 0 14.3 M10.91 14.3 C7.43 14.28, 4.46 14.16, 0 14.3 M0 14.3 C0.55 9.54, 0.49 4.23, 0 0 M0 14.3 C-0.19 9.93, 0.16 5.72, 0 0" stroke="#1e1e1e" stroke-width="2" fill="none"></path></g><g stroke-linecap="round" transform="translate(10 39.04638314917054) rotate(0 26.33331298828125 46.66667175292969)"><path d="M0.3 -0.32 L52.5 -1.51 L52.14 92.57 L-0.77 94.52" stroke="none" stroke-width="0" fill="#1e1e1e"></path><path d="M0 0 C11.36 0.38, 22.17 -0.77, 52.67 0 M0 0 C20.22 -0.87, 42.26 0.55, 52.67 0 M52.67 0 C51.07 22.88, 52.23 47.84, 52.67 93.33 M52.67 0 C51.7 20.18, 52.4 39.03, 52.67 93.33 M52.67 93.33 C34.54 92.54, 18.52 93.6, 0 93.33 M52.67 93.33 C35.85 93.22, 19.09 93.32, 0 93.33 M0 93.33 C-0.52 74.04, 1.01 52.44, 0 0 M0 93.33 C-0.91 61, -0.83 30.17, 0 0" stroke="#1e1e1e" stroke-width="2" fill="none"></path></g><g stroke-linecap="round" transform="translate(18.542889959156696 52.37969613745179) rotate(0 7.275632322546727 9.533570944521443)"><path d="M-0.08 -0.76 L14.29 -0.38 L14.17 19.66 L-0.33 18.24" stroke="none" stroke-width="0" fill="#ffec99"></path><path d="M0 0 C4.14 -0.33, 8.73 -0.18, 14.55 0 M0 0 C5.78 0.39, 10.96 -0.23, 14.55 0 M14.55 0 C14.62 3.54, 13.69 8.03, 14.55 19.07 M14.55 0 C14.44 6.96, 14.54 15.24, 14.55 19.07 M14.55 19.07 C8.8 18.99, 4.04 19.07, 0 19.07 M14.55 19.07 C11.37 19.2, 7.33 19, 0 19.07 M0 19.07 C0.41 13.21, 0.44 8.8, 0 0 M0 19.07 C0 13, 0.08 6.18, 0 0" stroke="#1e1e1e" stroke-width="2" fill="none"></path></g><g stroke-linecap="round" transform="translate(38.86444091768237 52.881466655961844) rotate(0 7.275632322546727 9.533570944521443)"><path d="M-0.26 -0.38 L14.17 0.59 L14.22 18.24 L0.68 19.2" stroke="none" stroke-width="0" fill="#ffec99"></path><path d="M0 0 C5.25 -0.14, 9.7 -0.39, 14.55 0 M0 0 C3.59 -0.33, 7.14 -0.24, 14.55 0 M14.55 0 C13.74 3.97, 15.4 7.58, 14.55 19.07 M14.55 0 C14.61 6.61, 14.87 11.89, 14.55 19.07 M14.55 19.07 C11.21 19.11, 7.03 19.32, 0 19.07 M14.55 19.07 C9.56 19.01, 5.16 18.96, 0 19.07 M0 19.07 C0.36 13.38, 0.3 5.96, 0 0 M0 19.07 C0.07 14.04, -0.04 8.8, 0 0" stroke="#1e1e1e" stroke-width="2" fill="none"></path></g><g stroke-linecap="round" transform="translate(18.16656494140625 78.72246460677741) rotate(0 7.275632322546727 9.533570944521443)"><path d="M-0.39 0.59 L14.22 -0.83 L15.23 19.2 L0.67 19.59" stroke="none" stroke-width="0" fill="#ffec99"></path><path d="M0 0 C4.31 -0.41, 7.11 0.48, 14.55 0 M0 0 C5.48 -0.12, 11.28 0.1, 14.55 0 M14.55 0 C15.3 3.84, 14.68 9.09, 14.55 19.07 M14.55 0 C14.89 3.65, 14.29 7.8, 14.55 19.07 M14.55 19.07 C9.79 19.32, 6.11 19.62, 0 19.07 M14.55 19.07 C9.69 18.92, 5.04 19.19, 0 19.07 M0 19.07 C0.3 13.87, -0.42 8.86, 0 0 M0 19.07 C-0.05 11.65, -0.14 4.77, 0 0" stroke="#1e1e1e" stroke-width="2" fill="none"></path></g><g stroke-linecap="round" transform="translate(38.48811589993204 79.22423512528746) rotate(0 7.275632322546727 9.533570944521443)"><path d="M-0.33 -0.83 L15.23 0.14 L15.22 19.59 L-0.55 19.11" stroke="none" stroke-width="0" fill="#ffec99"></path><path d="M0 0 C3.7 0.51, 8.75 -0.23, 14.55 0 M0 0 C3.02 0.08, 6.42 -0.28, 14.55 0 M14.55 0 C14.84 5.26, 13.79 10.81, 14.55 19.07 M14.55 0 C14.34 7.35, 14.59 15.34, 14.55 19.07 M14.55 19.07 C10.25 19.64, 5.87 18.48, 0 19.07 M14.55 19.07 C10.67 19.18, 6.37 19.19, 0 19.07 M0 19.07 C-0.42 11.68, 0.63 4.49, 0 0 M0 19.07 C-0.12 13.47, -0.18 8.52, 0 0" stroke="#1e1e1e" stroke-width="2" fill="none"></path></g><g stroke-linecap="round" transform="translate(18.66834694444435 103.81076084171525) rotate(0 7.275632322546727 9.533570944521443)"><path d="M0.68 0.14 L15.22 0.53 L14 19.11 L-0.81 18.56" stroke="none" stroke-width="0" fill="#ffec99"></path><path d="M0 0 C4.23 -0.32, 6.5 -0.66, 14.55 0 M0 0 C3.47 -0.32, 7.31 0.31, 14.55 0 M14.55 0 C13.73 4.36, 15.52 9.1, 14.55 19.07 M14.55 0 C14.48 4.31, 14.53 8.08, 14.55 19.07 M14.55 19.07 C9.92 18.51, 4.64 19.06, 0 19.07 M14.55 19.07 C10.6 19.25, 7.21 19.23, 0 19.07 M0 19.07 C0.71 13.7, -0.11 7.96, 0 0 M0 19.07 C-0.16 15.07, -0.13 10.12, 0 0" stroke="#1e1e1e" stroke-width="2" fill="none"></path></g><g stroke-linecap="round" transform="translate(38.98989790297003 104.31253136022531) rotate(0 7.275632322546727 9.533570944521443)"><path d="M0.67 0.53 L14 0.04 L13.74 18.56 L0.99 18.32" stroke="none" stroke-width="0" fill="#ffec99"></path><path d="M0 0 C4.78 -0.59, 10.26 -0.57, 14.55 0 M0 0 C4.47 0.38, 8.79 0.14, 14.55 0 M14.55 0 C15.41 6.2, 13.7 10.57, 14.55 19.07 M14.55 0 C14.58 4.37, 14.71 9.45, 14.55 19.07 M14.55 19.07 C8.92 18.94, 3.36 19.31, 0 19.07 M14.55 19.07 C9.92 19.23, 4.63 18.95, 0 19.07 M0 19.07 C-0.22 13.33, -0.79 7.5, 0 0 M0 19.07 C-0.12 13.68, 0.36 9.15, 0 0" stroke="#1e1e1e" stroke-width="2" fill="none"></path></g></svg>