<svg version="1.1" xmlns="http://www.w3.org/2000/svg" viewBox="0 0 134.40772661674293 121.64514839653077" width="134.40772661674293" height="121.64514839653077">
  <!-- svg-source:excalidraw -->
  
  <defs>
    <style class="style-fonts">
      
    </style>
    
  </defs>
  <rect x="0" y="0" width="134.40772661674293" height="121.64514839653077" fill="#ffffff"></rect><g stroke-linecap="round" transform="translate(10 57.404021430699686) rotate(0 56.975973352928065 27.120563482915543)"><path d="M-0.42 0.27 L112.85 -1 L115.22 56.18 L0.83 54.47" stroke="none" stroke-width="0" fill="#1e1e1e"></path><path d="M0 0 C32.95 -2.8, 65.57 -0.81, 113.95 0 M0 0 C36.13 2, 72.27 0.8, 113.95 0 M113.95 0 C114.08 16.07, 114.21 28.02, 113.95 54.24 M113.95 0 C112.89 13.27, 113.69 26, 113.95 54.24 M113.95 54.24 C69.43 54.73, 24.37 54.65, 0 54.24 M113.95 54.24 C86.94 53.74, 62.3 54.02, 0 54.24 M0 54.24 C-0.51 33.32, -1.6 14.75, 0 0 M0 54.24 C-1.51 36.33, -0.82 20.03, 0 0" stroke="#1e1e1e" stroke-width="2" fill="none"></path></g><g stroke-linecap="round" transform="translate(10.455759045664706 28.68812393357007) rotate(0 17.77652238135252 27.120553050304522)"><path d="M16.2 -1.39 L34.7 29.6 L19.16 54.95 L-1.58 27.49" stroke="none" stroke-width="0" fill="#1e1e1e" fill-rule="evenodd"></path><path d="M18 0 C22.93 6.52, 26.42 16.48, 35.55 28 M18 0 C24.4 11.08, 32.71 21.5, 35.55 28 M35.55 28 C26.96 39.71, 23.5 48.81, 18 54.24 M35.55 28 C31.02 34.54, 27.76 41.68, 18 54.24 M18 54.24 C13.03 49.5, 8.14 41.93, 0 28 M18 54.24 C11.52 45.63, 4.98 36.59, 0 28 M0 28 C3.07 18.69, 8.06 11.71, 18 0 M0 28 C6.85 16.53, 13.06 7.6, 18 0" stroke="#1e1e1e" stroke-width="2" fill="none"></path></g><g stroke-linecap="round" transform="translate(43.72973733215949 28.916034754235397) rotate(0 17.77652238135252 27.120553050304522)"><path d="M17.19 -1.27 L35.46 27.4 L17.22 56.19 L-1.09 28.97" stroke="none" stroke-width="0" fill="#1e1e1e" fill-rule="evenodd"></path><path d="M18 0 C23.55 8.36, 28.58 13.75, 35.55 28 M18 0 C24.67 10.24, 31.73 22.82, 35.55 28 M35.55 28 C28.69 36.88, 27.38 44.75, 18 54.24 M35.55 28 C30.92 34.58, 26.05 42.32, 18 54.24 M18 54.24 C14.6 47.96, 8.16 40.76, 0 28 M18 54.24 C13.21 46.43, 8.04 39.94, 0 28 M0 28 C6.34 21.42, 12.22 9.86, 18 0 M0 28 C6.54 17.16, 13.31 6.87, 18 0" stroke="#1e1e1e" stroke-width="2" fill="none"></path></g><g stroke-linecap="round" transform="translate(76.54785224687927 27.54861156068705) rotate(0 17.77652238135252 27.120553050304522)"><path d="M18.8 0.79 L37.04 29.85 L19.27 55.72 L-0.58 28.8" stroke="none" stroke-width="0" fill="#1e1e1e" fill-rule="evenodd"></path><path d="M18 0 C20.05 4.13, 26.54 13.06, 35.55 28 M18 0 C23.74 9.85, 30.32 20.05, 35.55 28 M35.55 28 C30.64 35.76, 26.8 39.74, 18 54.24 M35.55 28 C32.72 33.26, 27.24 37.98, 18 54.24 M18 54.24 C11.8 45.55, 10.59 39.03, 0 28 M18 54.24 C9.93 43.7, 3.04 34.59, 0 28 M0 28 C3.99 22.76, 7.2 13.05, 18 0 M0 28 C4.76 18.8, 11.66 10.38, 18 0" stroke="#1e1e1e" stroke-width="2" fill="none"></path></g><g stroke-linecap="round" transform="translate(103.89637871351545 10) rotate(0 10.255673951613744 43.98544779791183)"><path d="M-0.64 1.21 L20.64 1.46 L18.9 88.84 L0.36 88.46" stroke="none" stroke-width="0" fill="#1e1e1e"></path><path d="M0 0 C6.54 0.79, 11.27 1.09, 20.51 0 M0 0 C6.15 0.02, 11.76 -0.29, 20.51 0 M20.51 0 C21.31 25.34, 18.86 52.79, 20.51 87.97 M20.51 0 C20.42 31.18, 19.64 62.18, 20.51 87.97 M20.51 87.97 C16.61 87.44, 12.09 87.19, 0 87.97 M20.51 87.97 C15.73 87.89, 8.67 88.43, 0 87.97 M0 87.97 C1.54 54.23, 1.07 23.01, 0 0 M0 87.97 C0.25 62.88, -0.46 36.01, 0 0" stroke="#1e1e1e" stroke-width="2" fill="none"></path></g><g stroke-linecap="round" transform="translate(14.558028626310147 67.42476509609105) rotate(0 8.339171983520625 13.470970127225655)"><path d="M-0.14 -0.09 L16.01 -0.2 L16.38 26.94 L0.33 27.57" stroke="none" stroke-width="0" fill="#ffffff"></path><path d="M0 0 C6.68 0.85, 11.29 -0.71, 16.68 0 M0 0 C4.86 -0.2, 8.93 0.38, 16.68 0 M16.68 0 C16.64 5.35, 16.87 11.51, 16.68 26.94 M16.68 0 C16.27 7.88, 16.23 15.56, 16.68 26.94 M16.68 26.94 C10.23 27.26, 4.89 26.13, 0 26.94 M16.68 26.94 C10.63 27.36, 3.9 27.3, 0 26.94 M0 26.94 C0.96 20.57, 0.04 13.97, 0 0 M0 26.94 C0.13 18.49, -0.15 10.98, 0 0" stroke="#846358" stroke-width="2" fill="none"></path></g><g stroke-linecap="round" transform="translate(44.27969940068711 68.06623986405418) rotate(0 8.339171983520625 13.470970127225655)"><path d="M-0.47 -0.23 L16.54 -0.63 L17.36 27.49 L0.03 26.91" stroke="none" stroke-width="0" fill="#ffffff"></path><path d="M0 0 C6.8 0.6, 12.84 -0.29, 16.68 0 M0 0 C4.24 -0.05, 8.32 0.35, 16.68 0 M16.68 0 C17.11 6.98, 16.62 11.29, 16.68 26.94 M16.68 0 C16.33 8.74, 16.97 17.12, 16.68 26.94 M16.68 26.94 C12.17 26.68, 8.54 26.26, 0 26.94 M16.68 26.94 C12.62 26.74, 9.48 26.86, 0 26.94 M0 26.94 C-0.57 15.77, 0.12 6.17, 0 0 M0 26.94 C-0.2 18.17, 0.44 9.48, 0 0" stroke="#846358" stroke-width="2" fill="none"></path></g><g stroke-linecap="round" transform="translate(70.9009120592849 67.31783958392623) rotate(0 8.339171983520629 13.470970127225655)"><path d="M0.24 -0.62 L16.34 0.5 L16.46 26.88 L0.08 25.95" stroke="none" stroke-width="0" fill="#ffffff"></path><path d="M0 0 C4.21 0.26, 7.07 -0.04, 16.68 0 M0 0 C6.11 0.04, 11.63 -0.05, 16.68 0 M16.68 0 C15.93 6.16, 15.8 13.5, 16.68 26.94 M16.68 0 C16.33 7.68, 16.71 15.56, 16.68 26.94 M16.68 26.94 C11.1 26.11, 3.9 26.8, 0 26.94 M16.68 26.94 C10.45 27.18, 4.18 26.75, 0 26.94 M0 26.94 C1.07 19.78, -0.77 11.88, 0 0 M0 26.94 C0.4 20.86, -0.16 16.09, 0 0" stroke="#846358" stroke-width="2" fill="none"></path></g><g stroke-linecap="round" transform="translate(100.62258283366187 67.95931435188925) rotate(0 8.339171983520622 13.470970127225655)"><path d="M-0.33 0.5 L16.46 -0.06 L16.76 25.95 L0.12 26.87" stroke="none" stroke-width="0" fill="#ffffff"></path><path d="M0 0 C4.3 -0.1, 9.07 -0.29, 16.68 0 M0 0 C3.76 -0.1, 7.64 0.02, 16.68 0 M16.68 0 C15.7 9.84, 16.38 20.69, 16.68 26.94 M16.68 0 C16.66 8.62, 16.91 16.04, 16.68 26.94 M16.68 26.94 C11.38 26.74, 8.21 26.8, 0 26.94 M16.68 26.94 C10.53 26.7, 3.48 26.57, 0 26.94 M0 26.94 C-1.03 20.97, -1.02 16.38, 0 0 M0 26.94 C-0.24 18.39, 0 8.58, 0 0" stroke="#846358" stroke-width="2" fill="none"></path></g></svg>